<svg xmlns="http://www.w3.org/2000/svg" viewBox="0 0 100 100">
  <!-- Orange checkmark part -->
  <path d="M15 50 L35 70 L40 65 L25 50 Z" fill="#FDB813"/>
  
  <!-- Green leaf -->
  <path d="M45 20 Q70 15 80 35 Q75 55 70 65 Q65 70 60 67 Q55 63 53 55 Q51 45 50 35 Q49 25 45 20 Z" fill="#4ade80"/>
  <path d="M45 20 Q70 15 80 35 Q75 55 70 65 Q65 70 60 67 Q55 63 53 55 Q51 45 50 35 Q49 25 45 20 Z" fill="#22c55e" opacity="0.7"/>
  
  <!-- Leaf veins -->
  <path d="M52 28 Q62 35 68 50" stroke="#16a34a" stroke-width="1.5" fill="none" opacity="0.6"/>
  <path d="M54 35 Q60 40 65 50" stroke="#16a34a" stroke-width="1" fill="none" opacity="0.5"/>
  <path d="M56 42 Q60 45 63 52" stroke="#16a34a" stroke-width="1" fill="none" opacity="0.5"/>
  
  <!-- Leaf stem -->
  <path d="M53 55 Q51 62 50 70" stroke="#16a34a" stroke-width="3" fill="none"/>
</svg>